<?xml version="1.0" encoding="UTF-8" standalone="no"?>
<svg
   xmlns:dc="http://purl.org/dc/elements/1.1/"
   xmlns:cc="http://creativecommons.org/ns#"
   xmlns:rdf="http://www.w3.org/1999/02/22-rdf-syntax-ns#"
   xmlns:svg="http://www.w3.org/2000/svg"
   xmlns="http://www.w3.org/2000/svg"
   xmlns:sodipodi="http://sodipodi.sourceforge.net/DTD/sodipodi-0.dtd"
   xmlns:inkscape="http://www.inkscape.org/namespaces/inkscape"
   inkscape:version="1.0 (4035a4fb49, 2020-05-01)"
   sodipodi:docname="UTurnPermitted.svg"
   id="svg6197"
   version="1.1"
   viewBox="0 0 45.257458 60.145778"
   height="60.145779mm"
   width="45.257458mm">
  <defs
     id="defs6191" />
  <sodipodi:namedview
     fit-margin-bottom="0"
     fit-margin-right="0"
     fit-margin-left="0"
     fit-margin-top="0"
     inkscape:window-maximized="1"
     inkscape:window-y="-8"
     inkscape:window-x="1358"
     inkscape:window-height="1027"
     inkscape:window-width="1920"
     showgrid="false"
     inkscape:document-rotation="0"
     inkscape:current-layer="layer1"
     inkscape:document-units="mm"
     inkscape:cy="89.753899"
     inkscape:cx="-6.5341703"
     inkscape:zoom="0.7"
     inkscape:pageshadow="2"
     inkscape:pageopacity="0.0"
     borderopacity="1.0"
     bordercolor="#666666"
     pagecolor="#ffffff"
     id="base" />
  <metadata
     id="metadata6194">
    <rdf:RDF>
      <cc:Work
         rdf:about="">
        <dc:format>image/svg+xml</dc:format>
        <dc:type
           rdf:resource="http://purl.org/dc/dcmitype/StillImage" />
        <dc:title></dc:title>
      </cc:Work>
    </rdf:RDF>
  </metadata>
  <g
     transform="translate(-97.5677,-113.55806)"
     id="layer1"
     inkscape:groupmode="layer"
     inkscape:label="Layer 1">
    <g
       transform="matrix(0.35277777,0,0,0.35277777,31.738091,64.860225)"
       id="g16989">
      <path
         id="path2210"
         d="m 186.95313,151.125 c 0,-7.03125 5.71094,-12.73438 12.75781,-12.73438 h 102.07422 c 7.04688,0 12.75781,5.70313 12.75781,12.73438 v 144.32421 c 0,7.03126 -5.71093,12.73438 -12.75781,12.73438 H 199.71094 c -7.04687,0 -12.75781,-5.70312 -12.75781,-12.73438 z m 0,0"
         style="fill:none;stroke:#0f110f;stroke-width:0.699017;stroke-linecap:round;stroke-linejoin:round;stroke-miterlimit:10;stroke-opacity:1" />
      <path
         id="path2212"
         d="M 306.02734,295.44922 V 151.125 c 0,-2.33594 -1.91015,-4.24219 -4.26172,-4.24219 H 199.70703 c -2.35156,0 -4.25391,1.90625 -4.25391,4.24219 v 144.32422 c 0,2.33594 1.90235,4.24219 4.25391,4.24219 h 102.05859 c 2.35157,0 4.26172,-1.90625 4.26172,-4.24219 z M 311.69922,151.125 v 144.32422 c 0,5.46094 -4.45313,9.90234 -9.9336,9.90234 H 199.70703 c -5.47266,0 -9.92187,-4.4414 -9.92187,-9.90234 V 151.125 c 0,-5.46094 4.44921,-9.90234 9.92187,-9.90234 h 102.05859 c 5.48047,0 9.9336,4.4414 9.9336,9.90234"
         style="fill:#0f110f;fill-opacity:1;fill-rule:nonzero;stroke:none" />
      <g
         transform="translate(223.354,211.686)"
         style="fill:#0f110f;fill-opacity:1"
         id="use2342">
        <path
           style="stroke:none"
           d="m 47.78125,-20.578125 c 0,3.15625 -0.515625,6.046875 -1.546875,8.671875 -1.023437,2.625 -2.445312,4.886719 -4.265625,6.78125 -1.8125,1.898437 -3.984375,3.371094 -6.515625,4.421875 -2.523437,1.039063 -5.28125,1.5625 -8.28125,1.5625 -2.992187,0 -5.746094,-0.523437 -8.265625,-1.5625 C 16.394531,-1.753906 14.222656,-3.226563 12.390625,-5.125 10.554688,-7.019531 9.125,-9.28125 8.09375,-11.90625 7.070313,-14.53125 6.5625,-17.421875 6.5625,-20.578125 V -50.90625 h 9.234375 v 30.8125 c 0,1.75 0.304688,3.34375 0.921875,4.78125 0.613281,1.4375 1.4375,2.667969 2.46875,3.6875 1.039063,1.011719 2.242188,1.796875 3.609375,2.359375 1.375,0.5625 2.832031,0.84375 4.375,0.84375 1.5,0 2.9375,-0.269531 4.3125,-0.8125 1.375,-0.539063 2.59375,-1.316406 3.65625,-2.328125 1.070313,-1.007813 1.925781,-2.234375 2.5625,-3.671875 0.632813,-1.4375 0.953125,-3.054688 0.953125,-4.859375 v -30.8125 h 9.125 z m 0,0"
           id="path16917" />
      </g>
      <g
         id="g2354"
         style="fill:#0f110f;fill-opacity:1">
        <g
           transform="translate(201.07001,253.00301)"
           id="use2346">
          <path
             style="stroke:none"
             d="M 12.8125,-20.953125 V 0 H 8.34375 V -20.953125 H 1.015625 v -4.5 h 19.125 v 4.5 z m 0,0"
             id="path16901" />
        </g>
        <g
           transform="translate(222.24356,253.00301)"
           id="use2348">
          <path
             style="stroke:none"
             d="m 23.890625,-10.28125 c 0,1.574219 -0.257812,3.015625 -0.765625,4.328125 -0.511719,1.3125 -1.226562,2.445312 -2.140625,3.390625 -0.90625,0.949219 -1.992187,1.6875 -3.25,2.21875 -1.261719,0.519531 -2.640625,0.78125 -4.140625,0.78125 -1.5,0 -2.882812,-0.261719 -4.140625,-0.78125 -1.25,-0.53125 -2.335937,-1.269531 -3.25,-2.21875 C 5.285156,-3.507813 4.566406,-4.640625 4.046875,-5.953125 3.535156,-7.265625 3.28125,-8.707031 3.28125,-10.28125 v -15.171875 h 4.625 v 15.40625 c 0,0.875 0.148438,1.671875 0.453125,2.390625 0.300781,0.71875 0.710938,1.335937 1.234375,1.84375 0.519531,0.5 1.125,0.898437 1.8125,1.1875 0.6875,0.28125 1.414063,0.421875 2.1875,0.421875 0.75,0 1.460938,-0.132813 2.140625,-0.40625 0.6875,-0.269531 1.296875,-0.660156 1.828125,-1.171875 0.539063,-0.507813 0.96875,-1.125 1.28125,-1.84375 0.320313,-0.71875 0.484375,-1.523438 0.484375,-2.421875 v -15.40625 h 4.5625 z m 0,0"
             id="path16905" />
        </g>
        <g
           transform="translate(249.43637,253.00301)"
           id="use2350">
          <path
             style="stroke:none"
             d="M 18.796875,0 14.6875,-10.015625 H 7.90625 V 0 h -4.625 v -25.453125 h 12.125 c 1.070313,0 2.085938,0.199219 3.046875,0.59375 0.96875,0.386719 1.816406,0.929687 2.546875,1.625 0.726563,0.699219 1.304688,1.523437 1.734375,2.46875 0.425781,0.949219 0.640625,1.980469 0.640625,3.09375 0,0.699219 -0.101562,1.382812 -0.296875,2.046875 -0.1875,0.667969 -0.460937,1.292969 -0.8125,1.875 -0.355469,0.585937 -0.792969,1.121094 -1.3125,1.609375 -0.511719,0.480469 -1.089844,0.898437 -1.734375,1.25 L 23.890625,0 Z m 0,-17.671875 c 0,-1 -0.328125,-1.78125 -0.984375,-2.34375 C 17.164063,-20.585938 16.265625,-20.875 15.109375,-20.875 H 7.90625 v 6.3125 h 7.203125 c 0.570313,0 1.082031,-0.07031 1.53125,-0.21875 0.457031,-0.15625 0.847656,-0.367188 1.171875,-0.640625 0.320313,-0.269531 0.566406,-0.59375 0.734375,-0.96875 0.164063,-0.382813 0.25,-0.8125 0.25,-1.28125 z m 0,0"
             id="path16909" />
        </g>
        <g
           transform="translate(275.10666,253.00301)"
           id="use2352">
          <path
             style="stroke:none"
             d="M 19.96875,0 7.796875,-17.5 V 0 H 3.28125 V -25.453125 H 7.796875 L 19.5,-8.65625 v -16.796875 h 4.390625 V 0 Z m 0,0"
             id="path16913" />
        </g>
      </g>
      <g
         id="g2374"
         style="fill:#0f110f;fill-opacity:1">
        <g
           transform="translate(199.834,285.82599)"
           id="use2356">
          <path
             style="stroke:none"
             d="m 11.421875,-12.1875 c 0,1.542969 -0.390625,2.71875 -1.171875,3.53125 -0.773437,0.8125 -1.875,1.21875 -3.3125,1.21875 H 4.296875 V 0 H 1.875 v -16.96875 h 5.0625 c 0.675781,0 1.289063,0.117187 1.84375,0.34375 0.550781,0.230469 1.019531,0.554687 1.40625,0.96875 0.394531,0.417969 0.695313,0.921875 0.90625,1.515625 0.21875,0.585937 0.328125,1.234375 0.328125,1.953125 z m -2.40625,0 c 0,-0.363281 -0.054687,-0.691406 -0.15625,-0.984375 C 8.753906,-13.472656 8.601563,-13.726563 8.40625,-13.9375 8.21875,-14.144531 7.988281,-14.304688 7.71875,-14.421875 7.445313,-14.535156 7.148438,-14.59375 6.828125,-14.59375 h -2.53125 v 4.8125 h 2.53125 c 0.707031,0 1.25,-0.207031 1.625,-0.625 0.375,-0.414063 0.5625,-1.007813 0.5625,-1.78125 z m 0,0"
             id="path16921" />
        </g>
        <g
           transform="translate(212.76949,285.82599)"
           id="use2358">
          <path
             style="stroke:none"
             d="m 1.875,0 v -16.96875 h 8 v 2.375 H 4.296875 v 4.296875 H 7.84375 v 2.3125 H 4.296875 V -2.375 H 10.5 V 0 Z m 0,0"
             id="path16925" />
        </g>
        <g
           transform="translate(224.31229,285.82599)"
           id="use2360">
          <path
             style="stroke:none"
             d="M 8.90625,0 6.625,-7.984375 H 4.296875 V 0 H 1.875 v -16.96875 h 5.0625 c 0.675781,0 1.289063,0.109375 1.84375,0.328125 0.550781,0.210937 1.019531,0.511719 1.40625,0.90625 0.394531,0.398437 0.695313,0.875 0.90625,1.4375 0.21875,0.554687 0.328125,1.171875 0.328125,1.859375 0,1.023437 -0.210937,1.886719 -0.625,2.59375 C 10.390625,-9.132813 9.78125,-8.625 8.96875,-8.3125 L 11.421875,0 Z m 0.109375,-12.4375 c 0,-0.664063 -0.199219,-1.191406 -0.59375,-1.578125 -0.398437,-0.382813 -0.929687,-0.578125 -1.59375,-0.578125 h -2.53125 v 4.296875 h 2.53125 c 0.707031,0 1.25,-0.179688 1.625,-0.546875 0.375,-0.363281 0.5625,-0.894531 0.5625,-1.59375 z m 0,0"
             id="path16929" />
        </g>
        <g
           transform="translate(236.75206,285.82599)"
           id="use2362">
          <path
             style="stroke:none"
             d="M 10.625,0 V -9.515625 L 7.484375,0 4.296875,-9.515625 V 0 H 1.875 v -16.96875 h 2.421875 l 3.1875,9.53125 3.140625,-9.53125 h 2.453125 V 0 Z m 0,0"
             id="path16933" />
        </g>
        <g
           transform="translate(251.71758,285.82599)"
           id="use2364">
          <path
             style="stroke:none"
             d="M 1.875,0 V -16.96875 H 4.25 V 0 Z m 0,0"
             id="path16937" />
        </g>
        <g
           transform="translate(257.83124,285.82599)"
           id="use2366">
          <path
             style="stroke:none"
             d="M 6.046875,-14.703125 V 0 h -2.4375 V -14.703125 H 0.5 v -2.265625 h 8.671875 v 2.265625 z m 0,0"
             id="path16941" />
        </g>
        <g
           transform="translate(267.50925,285.82599)"
           id="use2368">
          <path
             style="stroke:none"
             d="M 6.046875,-14.703125 V 0 h -2.4375 V -14.703125 H 0.5 v -2.265625 h 8.671875 v 2.265625 z m 0,0"
             id="path16945" />
        </g>
        <g
           transform="translate(277.18726,285.82599)"
           id="use2370">
          <path
             style="stroke:none"
             d="m 1.875,0 v -16.96875 h 8 v 2.375 H 4.296875 v 4.296875 H 7.84375 v 2.3125 H 4.296875 V -2.375 H 10.5 V 0 Z m 0,0"
             id="path16949" />
        </g>
        <g
           transform="translate(288.73004,285.82599)"
           id="use2372">
          <path
             style="stroke:none"
             d="m 11.421875,-8.5 c 0,1.960937 -0.203125,3.574219 -0.609375,4.84375 -0.40625,1.261719 -1.023437,2.21875 -1.84375,2.875 C 8.644531,-0.539063 8.285156,-0.347656 7.890625,-0.203125 7.503906,-0.0664063 7.0625,0 6.5625,0 H 1.875 v -16.96875 h 4.359375 c 0.351563,0 0.664063,0.01563 0.9375,0.04687 0.269531,0.02344 0.515625,0.0625 0.734375,0.125 0.21875,0.05469 0.410156,0.121094 0.578125,0.203125 0.164063,0.08594 0.328125,0.183594 0.484375,0.296875 0.5,0.375 0.90625,0.875 1.21875,1.5 0.320313,0.617187 0.570313,1.28125 0.75,2 0.1875,0.71875 0.3125,1.453125 0.375,2.203125 0.07031,0.75 0.109375,1.449219 0.109375,2.09375 z m -2.40625,0.109375 c 0,-0.46875 -0.011719,-0.929688 -0.03125,-1.390625 C 8.960938,-10.25 8.925781,-10.675781 8.875,-11.0625 8.832031,-11.457031 8.78125,-11.804688 8.71875,-12.109375 8.664063,-12.421875 8.609375,-12.664063 8.546875,-12.84375 8.335938,-13.445313 8.050781,-13.890625 7.6875,-14.171875 7.320313,-14.453125 6.878906,-14.59375 6.359375,-14.59375 h -2.0625 V -2.375 h 2.0625 c 0.34375,0 0.65625,-0.0625 0.9375,-0.1875 0.28125,-0.132813 0.519531,-0.3125 0.71875,-0.53125 0.207031,-0.226563 0.375,-0.488281 0.5,-0.78125 0.132813,-0.300781 0.222656,-0.613281 0.265625,-0.9375 0.082031,-0.539063 0.140625,-1.101563 0.171875,-1.6875 0.039063,-0.59375 0.0625,-1.222656 0.0625,-1.890625 z m 0,0"
             id="path16953" />
        </g>
      </g>
    </g>
  </g>
</svg>
