<?xml version="1.0" encoding="UTF-8" standalone="no"?>
<svg
   xmlns:dc="http://purl.org/dc/elements/1.1/"
   xmlns:cc="http://creativecommons.org/ns#"
   xmlns:rdf="http://www.w3.org/1999/02/22-rdf-syntax-ns#"
   xmlns:svg="http://www.w3.org/2000/svg"
   xmlns="http://www.w3.org/2000/svg"
   xmlns:sodipodi="http://sodipodi.sourceforge.net/DTD/sodipodi-0.dtd"
   xmlns:inkscape="http://www.inkscape.org/namespaces/inkscape"
   sodipodi:docname="UTurnMustGiveWay.svg"
   inkscape:version="1.0 (4035a4fb49, 2020-05-01)"
   id="svg23535"
   version="1.1"
   viewBox="0 0 54.624657 90.960777"
   height="90.960777mm"
   width="54.624657mm">
  <defs
     id="defs23529" />
  <sodipodi:namedview
     inkscape:window-maximized="1"
     inkscape:window-y="-8"
     inkscape:window-x="1358"
     inkscape:window-height="1027"
     inkscape:window-width="1920"
     fit-margin-bottom="0"
     fit-margin-right="0"
     fit-margin-left="0"
     fit-margin-top="0"
     showgrid="false"
     inkscape:document-rotation="0"
     inkscape:current-layer="layer1"
     inkscape:document-units="mm"
     inkscape:cy="137.66107"
     inkscape:cx="125.43457"
     inkscape:zoom="0.49497475"
     inkscape:pageshadow="2"
     inkscape:pageopacity="0.0"
     borderopacity="1.0"
     bordercolor="#666666"
     pagecolor="#ffffff"
     id="base" />
  <metadata
     id="metadata23532">
    <rdf:RDF>
      <cc:Work
         rdf:about="">
        <dc:format>image/svg+xml</dc:format>
        <dc:type
           rdf:resource="http://purl.org/dc/dcmitype/StillImage" />
        <dc:title></dc:title>
      </cc:Work>
    </rdf:RDF>
  </metadata>
  <g
     transform="translate(-41.479337,-44.477945)"
     id="layer1"
     inkscape:groupmode="layer"
     inkscape:label="Layer 1">
    <g
       transform="translate(-297.84524,-3.7797619)"
       id="g24177">
      <path
         style="fill:#000000;fill-opacity:1;fill-rule:evenodd;stroke:none;stroke-width:0.352777"
         d="m 371.53997,64.775864 c 0,1.269175 -0.49334,2.503897 -1.44557,3.42167 -0.91777,0.916396 -2.15249,1.411111 -3.45749,1.411111 -0.565,0 -1.20028,-0.106109 -1.79972,-0.352778 -0.59945,-0.212217 -1.1989,-0.599447 -1.65778,-1.058333 -0.49334,-0.494715 -0.84612,-1.023882 -1.09417,-1.623329 -0.24666,-0.599447 -0.35277,-1.234722 -0.35277,-1.798341 v -7.514442 h 2.11666 v 7.514442 c 0,0.740008 0.2825,1.445564 0.81167,1.940278 0.52917,0.529167 1.23472,0.810288 1.97611,0.810288 0.31694,0 0.66972,-0.07028 1.0225,-0.176389 0.35278,-0.140561 0.6711,-0.352778 0.95222,-0.633899 0.2825,-0.248045 0.49472,-0.564995 0.63528,-0.917773 0.14194,-0.352778 0.17639,-0.705555 0.17639,-1.022505 v -7.514442 h 2.11667 v 7.514442"
         id="path17364" />
      <path
         style="fill:#000000;fill-opacity:1;fill-rule:evenodd;stroke:none;stroke-width:0.352777"
         d="m 350.97274,84.636153 v -8.042232 h -2.78639 v -1.659158 h 7.26777 v 1.659158 h -2.78777 v 8.042232"
         id="path17396" />
      <path
         style="fill:#000000;fill-opacity:1;fill-rule:evenodd;stroke:none;stroke-width:0.352777"
         d="m 364.9433,80.967814 c 0,1.022506 -0.42306,2.010558 -1.16444,2.716114 -0.70556,0.741384 -1.72807,1.128615 -2.75195,1.128615 -0.45751,0 -0.95222,-0.07028 -1.44556,-0.246671 -0.49472,-0.210841 -0.95223,-0.493337 -1.34083,-0.881944 -0.38861,-0.352777 -0.66973,-0.811665 -0.88195,-1.305001 -0.17638,-0.458888 -0.28249,-0.952225 -0.28249,-1.411113 v -6.033051 h 1.69361 v 6.033051 c 0,0.564996 0.24666,1.128614 0.66972,1.551673 0.42444,0.424434 0.98806,0.635275 1.5875,0.635275 0.24805,0 0.52917,-0.03447 0.81167,-0.14056 0.28249,-0.106109 0.52916,-0.282498 0.74138,-0.494715 0.45889,-0.45751 0.66973,-1.022507 0.66973,-1.551673 v -6.033051 h 1.69361 v 6.033051"
         id="path17398" />
      <path
         style="fill:#000000;fill-opacity:1;fill-rule:evenodd;stroke:none;stroke-width:0.352777"
         d="m 369.1408,80.861705 h 2.64583 l 1.69361,3.774448 h 1.83417 l -1.76389,-4.127225 c 0.565,-0.282498 1.05833,-0.775835 1.34083,-1.375283 0.2825,-0.599448 0.35278,-1.27055 0.21222,-1.905825 -0.17639,-0.633899 -0.52916,-1.198893 -1.05833,-1.621952 -0.49472,-0.423058 -1.12861,-0.635275 -1.79972,-0.671105 h -3.10472 v 1.659158 h 3.10472 -0.0345 c 0.31695,0.03447 0.6339,0.140559 0.88195,0.423058 0.24666,0.246668 0.38723,0.563618 0.38723,0.881943 0,0.31695 -0.14057,0.635275 -0.38723,0.881946 -0.24805,0.282496 -0.565,0.387229 -0.88195,0.387229 h 0.0345 -3.10472 v -4.233334 h -1.69223 v 9.70139 h 1.69223 v -3.774448"
         id="path17400" />
      <path
         style="fill:#000000;fill-opacity:1;fill-rule:evenodd;stroke:none;stroke-width:0.352777"
         d="m 377.25469,84.636153 v -9.70139 h 1.65916 l 4.51445,6.52639 v -6.52639 h 1.69361 v 9.70139 h -1.55167 l -4.62194,-6.666949 v 6.666949"
         id="path17402" />
      <path
         style="fill:#000000;fill-opacity:1;fill-rule:evenodd;stroke:none;stroke-width:0.352777"
         d="M 347.83357,99.771145 V 90.10421 h 1.72806 l 2.82222,5.786382 2.92834,-5.786382 h 1.62333 v 9.666935 h -1.69361 v -5.820833 l -2.89251,5.750555 -2.82222,-5.786382 v 5.85666"
         id="path17404" />
      <path
         style="fill:#000000;fill-opacity:1;fill-rule:evenodd;stroke:none;stroke-width:0.352777"
         d="m 367.30663,96.101433 c 0,1.023879 -0.38723,2.011934 -1.12861,2.751942 -0.74139,0.705553 -1.72806,1.128612 -2.78639,1.128612 -0.45889,0 -0.95361,-0.104733 -1.44694,-0.28112 -0.49334,-0.17639 -0.95223,-0.458888 -1.34083,-0.847492 -0.38724,-0.387231 -0.66973,-0.846117 -0.84612,-1.305005 -0.21222,-0.493337 -0.2825,-0.988052 -0.2825,-1.446937 V 90.10421 h 1.69361 v 5.997223 c 0,0.600821 0.21084,1.164442 0.63527,1.553046 0.42306,0.423058 0.98668,0.669729 1.58751,0.669729 0.28111,0 0.52916,-0.07028 0.81028,-0.17639 0.2825,-0.106108 0.565,-0.282498 0.77722,-0.493339 0.4575,-0.423058 0.63389,-1.02388 0.63389,-1.553046 V 90.10421 h 1.69361 v 5.997223"
         id="path17406" />
      <path
         style="fill:#000000;fill-opacity:1;fill-rule:evenodd;stroke:none;stroke-width:0.352777"
         d="m 369.24691,98.077537 c 0.35278,0.423058 0.77583,0.846116 1.34083,1.164442 0.52917,0.316949 1.12861,0.56362 1.76389,0.669729 0.63528,0.106112 1.305,0.07028 1.90445,-0.07028 0.63527,-0.106109 1.16444,-0.352777 1.62333,-0.669727 0.88194,-0.564996 1.34083,-1.5875 1.19889,-2.575555 -0.0703,-0.494712 -0.28112,-0.952224 -0.6339,-1.376658 -0.31832,-0.387229 -0.77721,-0.669727 -1.23472,-0.810287 l -3.21083,-0.953602 c -0.31695,-0.07028 -0.52916,-0.352779 -0.565,-0.669729 -0.0703,-0.316949 0.10612,-0.635275 0.35278,-0.811665 0.52917,-0.316949 1.20028,-0.493337 1.90583,-0.387228 0.70556,0.104733 1.26917,0.45751 1.69361,0.881944 l 1.26917,-1.094161 c -0.31695,-0.35278 -0.74,-0.669729 -1.19889,-0.917773 -0.45889,-0.281123 -0.98805,-0.45751 -1.55305,-0.529167 -0.52917,-0.07028 -1.09278,-0.03447 -1.62195,0.07166 -0.49472,0.104733 -0.98805,0.31695 -1.37666,0.563618 -0.84611,0.529167 -1.305,1.481392 -1.16306,2.469446 0.0703,0.423058 0.24666,0.881944 0.56361,1.270551 0.35278,0.352776 0.77584,0.635275 1.20027,0.775835 l 3.20946,0.952224 c 0.35277,0.106109 0.63527,0.423059 0.70555,0.775836 0.0358,0.388606 -0.14056,0.777213 -0.45889,0.988054 -0.31694,0.176387 -0.66972,0.352777 -1.05833,0.423058 -0.42306,0.106109 -0.84611,0.106109 -1.26917,0.03583 -0.42306,-0.07028 -0.81167,-0.212217 -1.16444,-0.423059 -0.35278,-0.212217 -0.63528,-0.494715 -0.88195,-0.775835 l -1.34083,1.022504"
         id="path17408" />
      <path
         style="fill:#000000;fill-opacity:1;fill-rule:evenodd;stroke:none;stroke-width:0.352777"
         d="m 380.95885,99.771145 v -8.007781 h -2.78639 V 90.10421 h 7.26778 v 1.659154 h -2.78777 v 8.007781"
         id="path17410" />
      <path
         style="fill:#000000;fill-opacity:1;fill-rule:evenodd;stroke:none;stroke-width:0.352777"
         d="m 355.1358,105.02699 c -0.77584,0.0358 -1.55167,0.28249 -2.18695,0.70555 -0.66973,0.42306 -1.16444,1.05834 -1.44694,1.76389 -0.66972,1.65778 -0.66972,3.49333 0,5.15111 0.2825,0.70555 0.77721,1.34083 1.44694,1.76389 0.63528,0.45888 1.41111,0.70555 2.18695,0.70555 0.24666,0 0.52917,-0.0358 0.77583,-0.10611 0.81167,-0.17639 1.55305,-0.63527 2.11667,-1.27055 0.52917,-0.66973 0.81167,-1.48139 0.81167,-2.3275 v -1.34084 h -3.38585 v 1.65778 h 1.65779 c -0.14195,0.88195 -0.8475,1.5875 -1.76389,1.69361 -0.0703,0.0358 -0.14194,0.0358 -0.21222,0.0358 -0.9164,-0.0358 -1.72806,-0.60082 -2.08084,-1.41111 -0.49472,-1.27055 -0.49472,-2.68166 0,-3.91638 0.35278,-0.84612 1.16444,-1.41111 2.08084,-1.41111 0.38861,0 0.81166,0.14056 1.16444,0.3886 0.35278,0.24667 0.59945,0.59945 0.70556,0.95223 l 1.62332,-0.565 c -0.28249,-0.70555 -0.74138,-1.305 -1.37665,-1.76389 -0.59945,-0.42306 -1.34084,-0.66973 -2.11667,-0.70555"
         id="path17412" />
      <path
         style="fill:#000000;fill-opacity:1;fill-rule:evenodd;stroke:none;stroke-width:0.352777"
         d="m 361.06274,114.94059 v -9.70139 h 1.76389 v 9.70139"
         id="path17414" />
      <path
         style="fill:#000000;fill-opacity:1;fill-rule:evenodd;stroke:none;stroke-width:0.352777"
         d="m 367.97774,114.94059 -3.52778,-9.70139 h 1.79834 l 2.68166,7.30223 2.64583,-7.30223 h 1.79834 l -3.52778,9.70139"
         id="path17416" />
      <path
         style="fill:#000000;fill-opacity:1;fill-rule:evenodd;stroke:none;stroke-width:0.352777"
         d="m 375.03329,114.94059 v -9.70139 h 7.09001 v 1.65778 h -5.39778 v 1.83417 h 2.92833 v 1.65778 h -2.92833 v 2.85805 h 5.57417 v 1.69361"
         id="path17418" />
      <path
         style="fill:#000000;fill-opacity:1;fill-rule:evenodd;stroke:none;stroke-width:0.352777"
         d="m 352.59607,130.07421 -1.76388,-9.70139 h 1.72805 l 1.05834,5.82083 1.51722,-5.82083 h 1.69361 l 1.51722,5.82083 1.05833,-5.82083 h 1.69361 l -1.76389,9.70139 h -1.72944 l -1.62195,-6.24389 -1.62333,6.24389"
         id="path17420" />
      <path
         style="fill:#000000;fill-opacity:1;fill-rule:evenodd;stroke:none;stroke-width:0.352777"
         d="m 365.54274,126.12337 -0.66972,1.69361 h 3.95083 l 0.95223,2.25723 h 2.01055 l -4.09139,-9.70139 h -1.72944 l -4.09139,9.70139 h 2.01055 l 0.98806,-2.25723 0.66972,-1.69361 1.305,-2.99861 1.27056,2.99861 h -2.57556"
         id="path17422" />
      <path
         style="fill:#000000;fill-opacity:1;fill-rule:evenodd;stroke:none;stroke-width:0.352777"
         d="m 376.62079,130.07421 v -3.95084 l -4.05694,-5.75055 h 2.045 l 2.85806,4.05694 2.82222,-4.05694 h 2.04639 l -4.05695,5.75055 v 3.95084"
         id="path17424" />
      <path
         style="fill:none;stroke:#000000;stroke-width:0.0846667;stroke-linecap:butt;stroke-linejoin:bevel;stroke-miterlimit:1.414;stroke-opacity:1"
         d="m 339.36691,55.567813 c 0,-1.940278 0.77583,-3.774447 2.15249,-5.151106 1.33945,-1.375283 3.20945,-2.116667 5.11528,-2.116667"
         id="path17426" />
      <path
         style="fill:none;stroke:#000000;stroke-width:0.0846667;stroke-linecap:butt;stroke-linejoin:bevel;stroke-miterlimit:1.414;stroke-opacity:1"
         d="m 346.63468,48.30004 h 40.00445"
         id="path17428" />
      <path
         style="fill:none;stroke:#000000;stroke-width:0.0846667;stroke-linecap:butt;stroke-linejoin:bevel;stroke-miterlimit:1.414;stroke-opacity:1"
         d="m 386.63913,48.30004 c 1.90445,0 3.77445,0.741384 5.15111,2.116667 1.33945,1.376659 2.11666,3.210828 2.11666,5.151106"
         id="path17430" />
      <path
         style="fill:none;stroke:#000000;stroke-width:0.0846667;stroke-linecap:butt;stroke-linejoin:bevel;stroke-miterlimit:1.414;stroke-opacity:1"
         d="M 393.9069,55.567813 V 131.87393"
         id="path17432" />
      <path
         style="fill:none;stroke:#000000;stroke-width:0.0846667;stroke-linecap:butt;stroke-linejoin:bevel;stroke-miterlimit:1.414;stroke-opacity:1"
         d="m 393.9069,131.87393 c 0,1.94027 -0.77721,3.81027 -2.11666,5.14973 -1.37666,1.37666 -3.24666,2.15249 -5.15111,2.15249"
         id="path17434" />
      <path
         style="fill:none;stroke:#000000;stroke-width:0.0846667;stroke-linecap:butt;stroke-linejoin:bevel;stroke-miterlimit:1.414;stroke-opacity:1"
         d="M 386.63913,139.17615 H 346.63468"
         id="path17436" />
      <path
         style="fill:none;stroke:#000000;stroke-width:0.0846667;stroke-linecap:butt;stroke-linejoin:bevel;stroke-miterlimit:1.414;stroke-opacity:1"
         d="m 346.63468,139.17615 c -1.90583,0 -3.77583,-0.77583 -5.11528,-2.15249 -1.37666,-1.33946 -2.15249,-3.20946 -2.15249,-5.14973"
         id="path17438" />
      <path
         style="fill:none;stroke:#000000;stroke-width:0.0846667;stroke-linecap:butt;stroke-linejoin:bevel;stroke-miterlimit:1.414;stroke-opacity:1"
         d="M 339.36691,131.87393 V 55.567813"
         id="path17440" />
      <path
         style="fill:#000000;fill-opacity:1;fill-rule:evenodd;stroke:none;stroke-width:0.352777"
         d="m 386.63913,49.50031 c 0.70556,0 1.48139,0.140561 2.22278,0.423059 0.74,0.282497 1.44556,0.741383 2.04638,1.34083 0.59945,0.599447 1.05834,1.305003 1.33945,2.046387 0.31833,0.775836 0.45889,1.515844 0.45889,2.257227 v 76.306117 c 0,0.74 -0.14056,1.48139 -0.45889,2.25722 -0.28111,0.74139 -0.74,1.44694 -1.33945,2.04639 -0.60082,0.59945 -1.30638,1.05833 -2.04638,1.34083 -0.74139,0.31695 -1.51722,0.42306 -2.22278,0.42306 h -40.00445 c -0.70556,0 -1.48277,-0.10611 -2.22278,-0.42306 -0.74138,-0.2825 -1.44694,-0.74138 -2.04638,-1.34083 -0.59945,-0.59945 -1.05834,-1.305 -1.34083,-2.04639 -0.31695,-0.77583 -0.42306,-1.51722 -0.42306,-2.25722 V 55.567813 c 0,-0.741383 0.10611,-1.481391 0.42306,-2.257227 0.28249,-0.741384 0.74138,-1.44694 1.34083,-2.046387 0.59944,-0.599447 1.305,-1.058333 2.04638,-1.34083 0.74001,-0.282498 1.51722,-0.423059 2.22278,-0.423059 h 40.00445 m 0,2.433617 h -40.00445 c -0.42444,0 -0.88195,0.07028 -1.34083,0.246669 -0.42306,0.176389 -0.8475,0.458886 -1.23472,0.811664 -0.35278,0.352778 -0.59945,0.775836 -0.77584,1.234722 -0.21222,0.423059 -0.2825,0.881945 -0.2825,1.340831 v 76.306117 c 0,0.45888 0.0703,0.91639 0.2825,1.34083 0.17639,0.45751 0.42306,0.88194 0.77584,1.23472 0.38722,0.35278 0.81166,0.6339 1.23472,0.81029 0.45888,0.17639 0.91639,0.28249 1.34083,0.28249 h 40.00445 c 0.42306,0 0.88195,-0.1061 1.34083,-0.28249 0.45889,-0.17639 0.84612,-0.45751 1.23472,-0.81029 0.35278,-0.35278 0.63528,-0.77721 0.81167,-1.23472 0.17639,-0.42444 0.24667,-0.88195 0.24667,-1.34083 V 55.567813 c 0,-0.458886 -0.0703,-0.917772 -0.24667,-1.340831 -0.17639,-0.458886 -0.45889,-0.881944 -0.81167,-1.234722 -0.3886,-0.352778 -0.77583,-0.635275 -1.23472,-0.811664 -0.45888,-0.176389 -0.91777,-0.246669 -1.34083,-0.246669"
         id="path17442" />
    </g>
  </g>
</svg>
