<?xml version="1.0" standalone="no"?>
<!DOCTYPE svg PUBLIC "-//W3C//DTD SVG 20010904//EN"
 "http://www.w3.org/TR/2001/REC-SVG-20010904/DTD/svg10.dtd">
<svg version="1.0" xmlns="http://www.w3.org/2000/svg"
 width="700.000000pt" height="700.000000pt" viewBox="0 0 700.000000 700.000000"
 preserveAspectRatio="xMidYMid meet">
<metadata>
Created by potrace 1.11, written by Peter Selinger 2001-2013
</metadata>
<g transform="translate(0.000000,700.000000) scale(0.100000,-0.100000)"
fill="#000000" stroke="none">
<path d="M1329 6996 c-2 -2 -29 -7 -60 -10 -65 -8 -72 -9 -159 -31 -36 -8 -72
-17 -80 -19 -102 -26 -308 -126 -423 -206 -222 -155 -404 -381 -505 -625 -33
-79 -78 -243 -89 -325 -4 -30 -8 -554 -8 -1165 l0 -1110 23 -67 c24 -68 81
-159 130 -205 15 -14 142 -111 282 -216 269 -200 321 -247 375 -338 72 -123
68 -51 69 -1437 l0 -1242 41 39 c22 22 65 63 95 92 30 29 144 138 253 243 261
251 341 326 347 326 8 0 130 -116 598 -567 70 -68 130 -123 133 -123 3 0 5
696 5 1548 l-1 1547 -24 65 c-45 123 -107 201 -236 295 -44 33 -84 63 -90 67
-5 5 -84 64 -175 132 -91 68 -181 139 -201 157 -65 62 -118 154 -140 244 -14
58 -21 1159 -8 1235 24 133 128 239 274 279 28 8 684 11 2275 11 l2235 1 95
90 c52 50 176 169 275 264 99 96 222 213 273 262 l94 88 -79 74 c-43 40 -163
155 -268 256 -104 100 -235 226 -290 279 l-100 96 -2466 0 c-1356 0 -2468 -2
-2470 -4z"/>
</g>
</svg>
