<?xml version="1.0" encoding="UTF-8" standalone="no"?>
<svg
   xmlns:dc="http://purl.org/dc/elements/1.1/"
   xmlns:cc="http://creativecommons.org/ns#"
   xmlns:rdf="http://www.w3.org/1999/02/22-rdf-syntax-ns#"
   xmlns:svg="http://www.w3.org/2000/svg"
   xmlns="http://www.w3.org/2000/svg"
   xmlns:sodipodi="http://sodipodi.sourceforge.net/DTD/sodipodi-0.dtd"
   xmlns:inkscape="http://www.inkscape.org/namespaces/inkscape"
   id="svg8"
   version="1.1"
   viewBox="0 0 312.24442 75"
   height="75mm"
   width="312.24442mm"
   inkscape:version="1.0 (4035a4fb49, 2020-05-01)"
   sodipodi:docname="header.svg">
  <defs
     id="defs2" />
  <sodipodi:namedview
     fit-margin-bottom="0"
     fit-margin-right="0"
     fit-margin-left="0"
     fit-margin-top="0"
     inkscape:snap-intersection-paths="true"
     inkscape:snap-smooth-nodes="true"
     inkscape:object-paths="true"
     inkscape:snap-bbox-edge-midpoints="false"
     inkscape:bbox-nodes="false"
     inkscape:bbox-paths="false"
     id="base"
     pagecolor="#ffffff"
     bordercolor="#666666"
     borderopacity="1.0"
     inkscape:pageopacity="0"
     inkscape:pageshadow="2"
     inkscape:zoom="0.5"
     inkscape:cx="533.98052"
     inkscape:cy="19.254909"
     inkscape:document-units="mm"
     inkscape:current-layer="g28189"
     inkscape:document-rotation="0"
     showgrid="false"
     width="750mm"
     inkscape:object-nodes="false"
     inkscape:snap-nodes="true"
     inkscape:snap-others="true"
     inkscape:window-width="1366"
     inkscape:window-height="715"
     inkscape:window-x="-8"
     inkscape:window-y="374"
     inkscape:window-maximized="1"
     inkscape:pagecheckerboard="false"
     inkscape:snap-bbox="true" />
  <metadata
     id="metadata5">
    <rdf:RDF>
      <cc:Work
         rdf:about="">
        <dc:format>image/svg+xml</dc:format>
        <dc:type
           rdf:resource="http://purl.org/dc/dcmitype/StillImage" />
        <dc:title />
      </cc:Work>
    </rdf:RDF>
  </metadata>
  <g
     transform="translate(-12.5,-12.5)"
     inkscape:label="Layer 1"
     inkscape:groupmode="layer"
     id="layer1">
    <path
       style="fill:#000000;fill-opacity:1;fill-rule:nonzero;stroke:none;stroke-width:0.872056"
       d="m 87.5,20.061011 -7.894374,7.554337 H 32.232444 c -2.182439,0 -3.947187,1.696892 -3.947187,3.780506 v 11.241494 c 0,1.740239 0.838868,3.39712 2.28338,4.470595 l 4.907874,3.663822 c 1.434078,1.073483 2.279907,2.720362 2.279907,4.470596 V 87.5 L 29.862044,79.935655 21.967676,87.5 V 61.509863 c 0,-1.750233 -0.835381,-3.400448 -2.279905,-4.473924 L 14.779897,53.36545 C 13.345827,52.298641 12.5,50.641751 12.5,48.891518 V 27.615348 C 12.5,19.26757 19.562472,12.5 28.285257,12.5 H 79.605624 L 87.5,20.061011"
       id="path5415" />
    <path
       style="fill:#cccccc;fill-opacity:1;fill-rule:evenodd;stroke:none;stroke-width:0.130516"
       d="m 20.641276,33.437073 c 0,0.152948 -0.124399,0.277346 -0.276837,0.277346 H 18.37865 c -0.152439,0 -0.276836,-0.124398 -0.276836,-0.277346 v -2.58688 c 0,-0.152948 0.124397,-0.276835 0.276836,-0.276835 h 1.985789 c 0.152438,0 0.276837,0.123887 0.276837,0.276835 z m 2.077047,-5.099321 h -2.324314 l -2.292195,0.211581 v 1.450974 h 4.616509 z m -2.077047,6.2082 v 2.863714 c 0,0.153459 -0.124399,0.277346 -0.276837,0.277346 H 18.37865 c -0.152439,0 -0.276836,-0.123887 -0.276836,-0.277346 v -2.863714 c 0,-0.152949 0.124397,-0.277347 0.276836,-0.277347 h 1.985789 c 0.152438,0 0.276837,0.124398 0.276837,0.277347 z m -2.262626,7.113147 c -0.152439,0 -0.276836,-0.123887 -0.276836,-0.27684 v -2.864221 c 0,-0.152952 0.124397,-0.27684 0.276836,-0.27684 h 1.985789 c 0.152438,0 0.276837,0.123888 0.276837,0.27684 v 2.864221 c 0,0.152953 -0.124399,0.27684 -0.276837,0.27684 z m 2.262626,0.831533 v 2.771438 c 0,0.153458 -0.124399,0.277345 -0.276837,0.277345 H 18.37865 c -0.152439,0 -0.276836,-0.123887 -0.276836,-0.277345 v -2.771438 c 0,-0.152949 0.124397,-0.276836 0.276836,-0.276836 h 1.985789 c 0.152438,0 0.276837,0.123887 0.276837,0.276836 z m -3.00086,3.676893 h 5.124302 l 0.60007,-2.928462 -0.83969,-0.451199 c -0.673996,-0.36198 -0.926872,-1.202178 -0.564892,-1.876174 0.272759,-0.50932 0.832552,-0.795334 1.404582,-0.718352 v -6.469744 l -0.83969,-0.451199 c -0.673996,-0.361976 -0.926872,-1.202177 -0.564892,-1.876173 0.272759,-0.509321 0.832552,-0.795335 1.404582,-0.717842 v -2.987601 h -3.000349 l -2.246311,0.207499 c -0.427749,0.03976 -0.755059,0.398689 -0.755059,0.827967 v 17.164444 c 0,0.152948 0.124399,0.276836 0.277347,0.276836 z m 5.539813,-3.769171 c -0.459357,0 -0.831022,-0.372176 -0.831022,-0.831536 0,-0.458845 0.371665,-0.831022 0.831022,-0.831022 0.459357,0 0.831023,0.372177 0.831023,0.831022 0,0.45936 -0.371666,0.831536 -0.831023,0.831536 z m 0,-9.515468 c -0.459357,0 -0.831022,-0.372172 -0.831022,-0.831532 0,-0.459356 0.371665,-0.831533 0.831022,-0.831533 0.459357,0 0.831023,0.372177 0.831023,0.831533 0,0.45936 -0.371666,0.831532 -0.831023,0.831532"
       id="path13386" />
    <path
       style="fill:#cccccc;fill-opacity:1;fill-rule:evenodd;stroke:none;stroke-width:0.0880276"
       d="m 47.787526,20.498184 0.726573,1.079032 c 0.09456,0.140638 0.05742,0.331135 -0.08321,0.426039 -0.133762,0.0894 -0.314291,0.06086 -0.413323,-0.06602 l -0.824918,-1.057026 c -0.397152,0.413319 -0.528168,1.014382 -0.338699,1.554932 0.277149,0.792596 1.144709,1.210383 1.93765,0.933235 0.793279,-0.277154 1.21107,-1.144365 0.933917,-1.936618 -0.277492,-0.792938 -1.145053,-1.210727 -1.937988,-0.933576 z m -4.226374,1.60032 h -0.44736 c -0.09147,1.164654 -1.110323,2.034961 -2.275321,1.943492 -1.164992,-0.09112 -2.035645,-1.109291 -1.94452,-2.273595 0.09147,-1.164652 1.109974,-2.034961 2.274972,-1.943494 0.0753,0.0058 0.150267,0.01547 0.224543,0.02958 l 0.756485,-1.644679 -0.264428,-0.57459 -0.33079,-0.05742 -0.132043,-0.766806 2.207234,-0.09869 c 0.160584,-0.0069 0.296405,0.117256 0.303631,0.277838 0.0047,0.11038 -0.05296,0.213537 -0.149584,0.267179 -0.339731,0.188435 -0.706284,0.323915 -1.086594,0.401972 l 0.101441,0.220413 h 2.878443 v -0.198409 l 0.562898,-0.321509 c 0.03097,-0.01788 0.05021,-0.05089 0.05021,-0.08631 0,-0.05467 -0.04468,-0.09903 -0.09937,-0.09903 h -0.910541 v -0.727263 h 1.047052 c 0.456644,0 0.826981,0.369992 0.826981,0.826294 0,0.268898 -0.13101,0.520946 -0.35108,0.675683 v 0.260645 l 0.64405,1.783254 c 1.072148,-0.464897 2.318298,0.02682 2.783539,1.098631 0.465242,1.071463 -0.02679,2.31692 -1.098979,2.782161 -1.072148,0.464559 -2.318642,-0.02716 -2.783878,-1.09863 -0.351769,-0.810817 -0.162304,-1.755055 0.475558,-2.367124 l -0.167121,-0.463522 -1.627143,1.572464 c 0.120699,0.420889 -0.123097,0.86034 -0.544668,0.98069 -0.363804,0.103844 -0.750302,-0.06293 -0.923606,-0.399223 z m -1.962405,-0.726918 c -0.03644,0 -0.06603,-0.02957 -0.06603,-0.06602 0,-0.0096 0.0021,-0.01926 0.0062,-0.02751 l 0.287121,-0.623763 c 0.26718,0.171587 0.473837,0.422603 0.591095,0.717291 z m 1.534641,-2.764972 1.057369,2.29698 c 0.011,0.02373 0.03508,0.03886 0.06121,0.03816 0.08218,-0.0014 0.164019,0.01 0.242762,0.0337 0.02267,0.0069 0.0478,9.91e-4 0.065,-0.01582 l 1.82589,-1.764676 -0.212157,-0.588343 z m -1.057019,1.503354 c 0.474526,0.278868 0.821477,0.731388 0.967621,1.261618 h 0.517162 c 0.0076,-0.01478 0.01548,-0.02923 0.02408,-0.04333 l -0.974497,-2.117828 c -0.0066,-0.01444 -0.01824,-0.02613 -0.03231,-0.03267 -0.03337,-0.01513 -0.0729,-6.6e-4 -0.08802,0.03267 z m -0.942864,0.308785 -0.514416,1.11754 c -0.02408,0.05192 -0.03644,0.108318 -0.03644,0.16574 0,0.219037 0.177771,0.396471 0.396814,0.396471 h 1.536706 c -0.09181,0.834545 -0.842454,1.437328 -1.677694,1.346209 -0.83523,-0.09146 -1.438018,-0.84211 -1.346892,-1.676312 0.09009,-0.821138 0.818729,-1.420139 1.641926,-1.349648"
       id="path17276" />
    <g
       id="g25320"
       transform="matrix(0,-0.51673552,0.51673552,0,17.252554,175.44573)"
       style="fill:#cccccc">
      <g
         transform="matrix(0.32101411,-0.14629456,0.14629456,0.32101411,95.687566,-21.30206)"
         id="g25278"
         style="fill:#cccccc">
        <path
           id="path23576"
           d="m 244.08594,248.46875 4.73047,-10.39453 -7.21875,-3.28906 c -2.04297,-0.92969 -4.41797,-0.76954 -6.31641,0.42187 -2.60547,1.64063 -4.91016,3.72656 -6.78906,6.16016 z m 19.5039,8.86719 -2.03515,-12.54688 c -0.10938,-0.6289 -0.51953,-1.16406 -1.09375,-1.42578 l -9.47657,-4.30469 -4.73046,10.39453 z m 18.19922,8.26953 c 2.39453,1.09375 3.44922,3.91406 2.36719,6.30469 l -5.32031,11.70312 -1.73828,-0.79687 c 0.72265,-1.60157 0.97265,-3.29297 0.79687,-4.91407 -0.33203,-3.25 -2.33984,-6.23047 -5.51953,-7.68359 -4.79297,-2.17578 -10.43359,-0.0625 -12.61328,4.71875 l -30.33985,-13.78906 c 0.72657,-1.60157 0.97657,-3.29688 0.80079,-4.92578 -0.33204,-3.25 -2.33985,-6.23047 -5.51954,-7.6836 -4.79296,-2.17578 -10.4375,-0.0625 -12.61328,4.72266 l -7.80078,-3.54688 c 4.27344,-6.38672 11.32031,-10.35937 18.9961,-10.71093 3.8789,-3.375 8.47656,-5.83985 13.4375,-7.17188 2.14062,-0.58203 4.41796,-0.39453 6.43359,0.51953 l 18.48828,8.40625 c 1.44141,0.66406 2.47266,2.00781 2.72266,3.57422 l 2.34765,14.42578 15.07422,6.84766"
           style="fill:#cccccc;fill-opacity:1;fill-rule:nonzero;stroke:none" />
        <path
           id="path23578"
           d="m 276.01172,278.09766 c 0.0273,0.26171 0.0351,0.51953 0.0351,0.78125 0,4.20703 -3.41015,7.61718 -7.62109,7.61718 -1.18359,0 -2.30469,-0.26953 -3.29687,-0.75 -2.55469,-1.22656 -4.31641,-3.84375 -4.31641,-6.86718 0,-4.19922 3.41016,-7.61329 7.61328,-7.61329 3.94922,0 7.19141,3 7.58594,6.83204"
           style="fill:#cccccc;fill-opacity:1;fill-rule:nonzero;stroke:none" />
        <path
           id="path23580"
           d="m 228.33984,256.42187 c 0.0273,0.25782 0.0352,0.51563 0.0352,0.77735 0,4.20703 -3.41406,7.62109 -7.61328,7.62109 -1.1836,0 -2.30078,-0.26953 -3.3086,-0.7539 -2.55078,-1.22657 -4.3164,-3.83985 -4.3164,-6.86719 0,-4.19922 3.41406,-7.60938 7.625,-7.60938 3.9414,0 7.18359,3 7.57812,6.83203"
           style="fill:#cccccc;fill-opacity:1;fill-rule:nonzero;stroke:none" />
      </g>
    </g>
    <g
       id="g27940"
       transform="matrix(0.17314841,0,0,0.17314841,42.93262,14.688643)"
       style="fill:#cccccc">
      <path
         id="path26026"
         d="m 114.93162,26.440161 0.50299,-4.814867 -1.84933,2.328884 z m 34.66869,7.610904 -1.45797,1.34221 -5.20623,-3.803386 -0.50573,-0.67248 -0.33625,0.67248 3.02618,10.42348 -1.84933,0.66008 3.19291,13.187826 -2.18419,0.669724 -4.14514,-13.355942 -3.01239,0.168119 -5.47908,11.980664 -2.14974,-0.672481 4.30637,-11.643048 -1.78594,-0.673856 2.18419,-8.112514 -2.80155,-5.936587 -5.3771,-1.845193 -1.00597,-2.016069 -1.79145,7.948525 2.6293,10.970559 V 56.77767 h -3.63802 l -0.78411,-12.427149 -1.68258,-4.475866 -2.35094,6.491936 -6.16258,10.411079 -3.24666,-1.791449 5.59897,-10.6357 v -9.961837 l 0.67386,-3.471275 -4.14514,-7.668787 6.01651,-10.577819 2.60863,-1.346345 1.00735,-0.934307 c 0.92053,0.928797 2.16627,1.466233 3.47541,1.493792 l 0.33487,0.78686 1.79282,1.677074 2.35093,9.29211 4.48001,2.126312 1.84933,-4.978852 3.13641,-1.623328 0.3197,-0.673862 c 1.00184,0.875055 2.34818,1.248505 3.65732,1.008726 l 2.46255,3.133658 1.68121,7.109298 4.31326,4.309126"
         style="fill:#cccccc;fill-opacity:1;fill-rule:nonzero;stroke:none;stroke-width:0.352777" />
      <path
         id="path26028"
         d="m 140.35918,11.507737 c 2.04225,0 3.6959,1.656405 3.6959,3.697277 0,2.038121 -1.65365,3.693142 -3.6959,3.693142 -2.04225,0 -3.6959,-1.655021 -3.6959,-3.693142 0,-2.040872 1.65365,-3.697277 3.6959,-3.697277"
         style="fill:#cccccc;fill-opacity:1;fill-rule:nonzero;stroke:none;stroke-width:0.352777" />
      <path
         id="path26030"
         d="m 123.33214,2.4815896 c 2.41295,0 4.36976,1.9554366 4.36976,4.3670008 0,2.4101883 -1.95681,4.3656246 -4.36976,4.3656246 -2.41156,0 -4.36838,-1.9554363 -4.36838,-4.3656246 0,-2.4115642 1.95682,-4.3670008 4.36838,-4.3670008"
         style="fill:#cccccc;fill-opacity:1;fill-rule:nonzero;stroke:none;stroke-width:0.352777" />
    </g>
    <g
       transform="translate(9.3608384)"
       id="g28203">
      <g
         id="g28197">
        <g
           id="g28189">
          <text
             id="text28063"
             y="59.084717"
             x="39.853111"
             style="font-style:normal;font-variant:normal;font-weight:bold;font-stretch:normal;font-size:25.4px;line-height:1.25;font-family:Arial;-inkscape-font-specification:'Arial, Bold';font-variant-ligatures:normal;font-variant-caps:normal;font-variant-numeric:normal;font-variant-east-asian:normal;fill:#4d4d4d;fill-opacity:1;stroke:none;stroke-width:0.264583;"
             xml:space="preserve"><tspan
               id="tspan28065"
               style="font-style:normal;font-variant:normal;font-weight:bold;font-stretch:normal;font-size:25.4px;font-family:Arial;-inkscape-font-specification:'Arial, Bold';font-variant-ligatures:normal;font-variant-caps:normal;font-variant-numeric:normal;font-variant-east-asian:normal;stroke-width:0.264583;fill:#4d4d4d;"
               y="59.084717"
               x="39.853111"
               sodipodi:role="line">David Sisourath's Blog</tspan></text>
        </g>
      </g>
    </g>
  </g>
</svg>
